<?xml version="1.0" encoding="utf-8"?>
<!-- Generator: Adobe Illustrator 16.0.0, SVG Export Plug-In . SVG Version: 6.00 Build 0)  -->
<!DOCTYPE svg PUBLIC "-//W3C//DTD SVG 1.1//EN" "http://www.w3.org/Graphics/SVG/1.1/DTD/svg11.dtd">
<svg version="1.1" id="Ebene_1" xmlns="http://www.w3.org/2000/svg" xmlns:xlink="http://www.w3.org/1999/xlink" x="0px" y="0px" viewBox="0 0 255.121 255.121" enable-background="new 0 0 255.121 255.121" xml:space="preserve">
<path fill="#FFFFFF" d="M168.481,119.464h-72.81l17.373-17.736c1.521-1.554,1.521-4.071,0-5.625c-1.521-1.554-3.987-1.554-5.508,0
	l-24.025,24.525c-1.523,1.554-1.523,4.07,0,5.625l24.025,24.525c0.758,0.777,1.758,1.164,2.754,1.164
	c0.998,0,1.994-0.387,2.754-1.164c1.521-1.555,1.521-4.071,0-5.625l-17.373-17.736h72.81c2.151,0,3.895-1.782,3.895-3.978
	S170.632,119.464,168.481,119.464z"/>
</svg>
