<?xml version="1.0" encoding="utf-8"?>
<!-- Generator: Adobe Illustrator 16.0.0, SVG Export Plug-In . SVG Version: 6.00 Build 0)  -->
<!DOCTYPE svg PUBLIC "-//W3C//DTD SVG 1.1//EN" "http://www.w3.org/Graphics/SVG/1.1/DTD/svg11.dtd">
<svg version="1.1" id="Ebene_1" xmlns="http://www.w3.org/2000/svg" xmlns:xlink="http://www.w3.org/1999/xlink" x="0px" y="0px"
	 width="170.079px" height="170.079px" viewBox="-71.434 -71.434 170.079 170.079"
	 enable-background="new -71.434 -71.434 170.079 170.079" xml:space="preserve">
<path fill="#FFFFFF" d="M3.856,44.078c0,0.392-0.317,0.709-0.708,0.709H-8.664c-0.391,0-0.708-0.317-0.708-0.709v-60.944
	c0-0.391,0.317-0.708,0.708-0.708H3.147c0.391,0,0.708,0.317,0.708,0.708V44.078z"/>
<path fill="#FFFFFF" d="M36.572,44.078c0,0.392-0.317,0.709-0.709,0.709H24.052c-0.392,0-0.709-0.317-0.709-0.709v-60.944
	c0-0.391,0.317-0.708,0.709-0.708h11.811c0.392,0,0.709,0.317,0.709,0.708V44.078z"/>
</svg>
