<?xml version="1.0" encoding="utf-8"?>
<!-- Generator: Adobe Illustrator 16.0.0, SVG Export Plug-In . SVG Version: 6.00 Build 0)  -->
<!DOCTYPE svg PUBLIC "-//W3C//DTD SVG 1.1//EN" "http://www.w3.org/Graphics/SVG/1.1/DTD/svg11.dtd">
<svg version="1.1" id="Ebene_1" xmlns="http://www.w3.org/2000/svg" xmlns:xlink="http://www.w3.org/1999/xlink" x="0px" y="0px"
	 width="170.079px" height="170.079px" viewBox="-67.182 -71.434 170.079 170.079"
	 enable-background="new -67.182 -71.434 170.079 170.079" xml:space="preserve">
<path fill="#FFFFFF" d="M17.174,40.622L17.174,40.622L17.174,40.622c0,1.596-0.93,3.055-2.398,3.746
	c-0.593,0.286-1.232,0.42-1.865,0.42c-0.936,0-1.86-0.301-2.625-0.883L-3.688,33.191c-0.643,0.157-1.321,0.245-2.018,0.245H-19.71
	c-4.594,0-8.317-3.636-8.317-8.128V1.58c0-4.493,3.723-8.136,8.317-8.136h14.007c0.813,0,1.596,0.122,2.342,0.331l13.649-10.462
	c1.282-0.982,3.032-1.164,4.49-0.465c1.466,0.698,2.399,2.149,2.399,3.742v54.033H17.174z"/>
</svg>
