<?xml version="1.0" encoding="utf-8"?>
<!-- Generator: Adobe Illustrator 16.0.0, SVG Export Plug-In . SVG Version: 6.00 Build 0)  -->
<!DOCTYPE svg PUBLIC "-//W3C//DTD SVG 1.1//EN" "http://www.w3.org/Graphics/SVG/1.1/DTD/svg11.dtd">
<svg version="1.1" id="Ebene_1" xmlns="http://www.w3.org/2000/svg" xmlns:xlink="http://www.w3.org/1999/xlink" x="0px" y="0px"
	 width="170.079px" height="170.079px" viewBox="-71.434 -71.434 170.079 170.079"
	 enable-background="new -71.434 -71.434 170.079 170.079" xml:space="preserve">
<path fill="#FFFFFF" d="M36.424,14.245c0.029-0.065,0.055-0.133,0.076-0.202c0.011-0.037,0.024-0.072,0.032-0.109
	c0.023-0.103,0.037-0.208,0.038-0.317c0-0.005,0.001-0.01,0.001-0.015v0c0-0.001,0-0.002,0-0.003c0-0.564-0.312-1.05-0.768-1.31
	L-6.83-17.166c-0.247-0.229-0.568-0.373-0.925-0.398c-0.02-0.001-0.041-0.005-0.062-0.006c-0.015,0-0.027-0.004-0.042-0.004
	c-0.104,0-0.206,0.011-0.303,0.031c-0.058,0.011-0.111,0.033-0.167,0.051c-0.051,0.017-0.102,0.032-0.15,0.053
	c-0.03,0.014-0.063,0.019-0.092,0.034c-0.037,0.019-0.065,0.049-0.1,0.071c-0.031,0.02-0.059,0.042-0.088,0.063
	c-0.123,0.092-0.229,0.197-0.318,0.319c-0.012,0.016-0.027,0.031-0.039,0.047c-0.032,0.049-0.056,0.101-0.083,0.153
	c-0.031,0.061-0.059,0.123-0.082,0.188c-0.014,0.04-0.027,0.078-0.037,0.119c-0.033,0.124-0.056,0.25-0.056,0.384
	c0,0.021,0.005,0.041,0.007,0.062v59.212c-0.001,0.021-0.007,0.04-0.007,0.062c0,0.132,0.023,0.259,0.056,0.381
	c0.01,0.042,0.023,0.082,0.038,0.122c0.022,0.062,0.049,0.123,0.079,0.182c0.027,0.055,0.053,0.108,0.086,0.159
	c0.007,0.009,0.015,0.018,0.021,0.026c0.09,0.13,0.202,0.24,0.331,0.336c0.032,0.024,0.063,0.047,0.096,0.068
	c0.033,0.021,0.06,0.05,0.096,0.068L-8.572,44.6c0.208,0.113,0.441,0.181,0.692,0.184l-0.003,0.003c0.003,0,0.006-0.002,0.01-0.002
	c0.004,0,0.009,0.002,0.014,0.002c0.4,0,0.762-0.158,1.033-0.413l42.673-29.487c0.124-0.075,0.235-0.169,0.331-0.276
	c0.022-0.022,0.042-0.047,0.06-0.071c0.048-0.06,0.09-0.12,0.127-0.185C36.385,14.317,36.407,14.283,36.424,14.245z"/>
</svg>
