<?xml version="1.0" encoding="utf-8"?>
<!-- Generator: Adobe Illustrator 16.0.0, SVG Export Plug-In . SVG Version: 6.00 Build 0)  -->
<svg version="1.2" baseProfile="tiny" id="Ebene_1" xmlns="http://www.w3.org/2000/svg" xmlns:xlink="http://www.w3.org/1999/xlink"
	 x="0px" y="0px" width="27.21px" height="27.21px" viewBox="0 0 27.21 27.21" xml:space="preserve">
<g>
	<path fill="none" d="M23.001,16.458c-0.606,0.003-1.104,0.522-1.104,1.165v2.411l-4.456-4.467c-0.431-0.433-1.128-0.433-1.56,0
		c-0.431,0.432-0.431,1.134,0,1.565l4.436,4.441H17.92c-0.652,0.001-1.178,0.496-1.178,1.106c0,0.611,0.525,1.105,1.178,1.105h5.006
		c0.652,0,1.178-0.493,1.18-1.105c-0.002-0.017-0.005-0.029-0.007-0.045c0.002-0.021,0.007-0.044,0.007-0.064v-4.948
		C24.105,16.98,23.612,16.458,23.001,16.458z M9.771,15.567l-4.454,4.467v-2.411c0-0.643-0.498-1.162-1.105-1.165
		c-0.61,0-1.104,0.522-1.104,1.165l-0.001,4.949c0,0.021,0.006,0.043,0.007,0.064c-0.001,0.016-0.005,0.028-0.006,0.045
		c0.001,0.613,0.527,1.105,1.179,1.105h5.006c0.651,0,1.177-0.494,1.177-1.105c0-0.609-0.526-1.104-1.177-1.106H6.899l4.434-4.44
		c0.43-0.433,0.43-1.134,0-1.565C10.901,15.135,10.203,15.135,9.771,15.567z M24.105,4.532c-0.003-0.613-0.528-1.106-1.18-1.106
		H17.92c-0.652,0-1.178,0.493-1.178,1.106c0,0.609,0.525,1.105,1.178,1.106h2.396l-4.436,4.442c-0.431,0.431-0.431,1.13,0,1.562
		c0.432,0.436,1.129,0.436,1.56,0.001l4.456-4.464v2.411c0,0.642,0.498,1.16,1.104,1.162c0.611,0,1.104-0.521,1.104-1.162V4.642
		c0-0.021-0.006-0.044-0.008-0.063C24.1,4.562,24.103,4.548,24.105,4.532z M6.899,5.639h2.393c0.652-0.001,1.178-0.497,1.178-1.106
		c0-0.613-0.526-1.106-1.178-1.106H4.287c-0.651,0-1.177,0.493-1.179,1.106c0.001,0.016,0.005,0.03,0.006,0.046
		c-0.001,0.02-0.007,0.04-0.007,0.063l0.001,4.95c0,0.641,0.494,1.162,1.104,1.162c0.607-0.002,1.105-0.521,1.105-1.162V7.18
		l4.454,4.464c0.432,0.435,1.13,0.435,1.562,0c0.43-0.432,0.43-1.131,0-1.562L6.899,5.639z"/>
</g>
</svg>
