<?xml version="1.0" encoding="utf-8"?>
<!-- Generator: Adobe Illustrator 16.0.0, SVG Export Plug-In . SVG Version: 6.00 Build 0)  -->
<!DOCTYPE svg PUBLIC "-//W3C//DTD SVG 1.1//EN" "http://www.w3.org/Graphics/SVG/1.1/DTD/svg11.dtd">
<svg version="1.1" id="Ebene_1" xmlns="http://www.w3.org/2000/svg" xmlns:xlink="http://www.w3.org/1999/xlink" x="0px" y="0px"
	 width="170.079px" height="170.079px" viewBox="-67.182 -71.434 170.079 170.079"
	 enable-background="new -67.182 -71.434 170.079 170.079" xml:space="preserve">
<path fill="#FFFFFF" d="M17.174,40.622L17.174,40.622L17.174,40.622c0,1.596-0.93,3.055-2.398,3.746
	c-0.592,0.286-1.232,0.42-1.865,0.42c-0.935,0-1.861-0.302-2.625-0.883L-3.689,33.19c-0.643,0.159-1.32,0.247-2.018,0.247H-19.71
	c-4.594,0-8.317-3.637-8.317-8.128V1.58c0-4.494,3.723-8.136,8.317-8.136h14.006c0.813,0,1.596,0.122,2.342,0.331l13.65-10.463
	c1.282-0.982,3.032-1.164,4.491-0.464c1.465,0.697,2.398,2.148,2.398,3.741v54.033H17.174z M31.157,23.5l-4.668-4.568
	c1.078-1.443,1.724-3.2,1.724-5.13c0-2.114-0.78-4.057-2.071-5.57l4.636-4.533c2.47,2.682,3.989,6.217,3.989,10.104
	C34.766,17.494,33.408,20.869,31.157,23.5z M37.214,29.426c3.789-4.16,6.098-9.633,6.098-15.625c0-6.19-2.467-11.823-6.487-16.024
	l4.642-4.533c5.201,5.366,8.399,12.603,8.399,20.557c0,7.759-3.046,14.839-8.01,20.159L37.214,29.426z M52.997,44.723l-4.636-4.537
	c6.578-6.932,10.614-16.199,10.614-26.385c0-10.382-4.194-19.812-11.004-26.785l4.632-4.535c7.995,8.136,12.929,19.173,12.929,31.32
	C65.532,25.756,60.762,36.631,52.997,44.723z"/>
</svg>
