<svg xmlns="http://www.w3.org/2000/svg" width="20" height="18" viewBox="0 0 20 18">
  <defs>
    <style>
      .cls-1 {
        fill: #fff;
        stroke: #000;
        stroke-width: 1px;
        fill-rule: evenodd;
      }
    </style>
  </defs>
  <path id="instagram_speechbubble.svg" class="cls-1" d="M2936.73,5920.53a8.593,8.593,0,0,0-3.46-2.58,11.879,11.879,0,0,0-4.77-.95,12.168,12.168,0,0,0-3.69.56,10.232,10.232,0,0,0-3.03,1.51,7.5,7.5,0,0,0-2.03,2.26,5.47,5.47,0,0,0,.21,5.86,7.905,7.905,0,0,0,2.62,2.44,7.488,7.488,0,0,1-.27.84c-0.11.27-.2,0.48-0.29,0.65a4.711,4.711,0,0,1-.34.57c-0.15.2-.26,0.35-0.33,0.43s-0.2.23-.37,0.42l-0.33.39a0.873,0.873,0,0,0-.08.1c-0.05.06-.08,0.09-0.08,0.09l-0.06.1a0.417,0.417,0,0,0-.05.1,0.168,0.168,0,0,1-.02.11,0.161,0.161,0,0,0,.01.14v0.01a0.6,0.6,0,0,0,.18.32,0.448,0.448,0,0,0,.33.1,8.346,8.346,0,0,0,1.21-.24,11.5,11.5,0,0,0,4.87-2.68,13.785,13.785,0,0,0,1.54.09,11.879,11.879,0,0,0,4.77-.95,8.593,8.593,0,0,0,3.46-2.58A5.611,5.611,0,0,0,2936.73,5920.53Z" transform="translate(-2918.5 -5916.5)"/>
</svg>
