<?xml version="1.0" encoding="utf-8"?>
<!-- Generator: Adobe Illustrator 16.0.0, SVG Export Plug-In . SVG Version: 6.00 Build 0)  -->
<!DOCTYPE svg PUBLIC "-//W3C//DTD SVG 1.1//EN" "http://www.w3.org/Graphics/SVG/1.1/DTD/svg11.dtd">
<svg version="1.1" id="Ebene_1" xmlns="http://www.w3.org/2000/svg" xmlns:xlink="http://www.w3.org/1999/xlink" x="0px" y="0px"
	 width="255.12px" height="255.12px" viewBox="0 0 255.12 255.12" enable-background="new 0 0 255.12 255.12" xml:space="preserve">
<path fill-rule="evenodd" clip-rule="evenodd" d="M15.5,15.499h223.998v224H15.5V15.499z"/>
<g>
	<g>
		<path fill="#FFFFFF" d="M101.99,89.476H63.578v10.779h38.412V89.476z M101.99,77.304H63.578v10.78h38.412V77.304z M141.846,89.476
			h-38.413v10.779h38.413V89.476z M141.846,77.304h-38.413v10.78h38.413V77.304z M141.846,113.923h-38.413v10.78h38.413V113.923z
			 M141.846,101.751h-38.413v10.78h38.413V101.751z M181.622,113.923H143.21v10.78h38.412V113.923z M205.602,160.1
			c-3.891,0-6.154,2.249-6.154,6.586s2.264,6.585,6.154,6.585c3.101,0,4.916-1.561,5.494-4.418h-1.525
			c-0.551,2.063-1.842,3.175-3.943,3.175c-3.103,0-3.683-2.485-3.683-5.184h9.495C211.201,163.088,209.832,160.1,205.602,160.1z
			 M201.944,165.601c0-2.302,1.132-4.257,3.577-4.257c2.393,0,3.418,1.955,3.418,4.257H201.944z M197.053,170.414v-5.739
			c0-2.75-1.471-4.575-4.23-4.575c-2.025,0-3.602,0.979-4.654,2.645h-0.053v-2.247h-4.969v1.243h1.709
			c0.866,0,1.053,0.396,1.053,1.216v7.458c0,0.819-0.187,1.216-1.053,1.216h-1.709v1.244h7.65v-1.244h-1.604
			c-0.867,0-1.05-0.396-1.05-1.216v-4.708c0-2.115,1.47-4.125,3.967-4.125c2.028,0,2.71,1.083,2.71,2.909v5.924
			c0,0.819-0.185,1.216-1.051,1.216h-1.447v1.244h7.363v-1.244h-1.578C197.238,171.63,197.053,171.233,197.053,170.414z
			 M176.127,160.1c-4.232,0-6.785,2.777-6.785,6.586c0,3.808,2.553,6.585,6.785,6.585s6.785-2.777,6.785-6.585
			C182.912,162.877,180.359,160.1,176.127,160.1z M176.127,172.027c-3.26,0-4.287-2.485-4.287-5.342
			c0-2.855,1.027-5.342,4.287-5.342s4.285,2.486,4.285,5.342C180.412,169.542,179.387,172.027,176.127,172.027z M62.859,160.497
			h-5.494v1.243h0.527c0.76,0,1.471,0.185,1.471,0.527c0,0.292-0.078,0.505-0.213,0.847l-2.68,7.222h-0.053l-2.577-7.169
			c-0.133-0.395-0.314-0.66-0.314-0.952c0-0.317,0.21-0.475,0.945-0.475h1.079v-1.243h-6.205v1.243h0.684
			c0.738,0,1.262,0.66,1.631,1.479l-2.814,6.93h-0.052l-2.604-7.062c-0.133-0.315-0.236-0.556-0.236-0.846
			c0-0.37,0.211-0.502,0.842-0.502h0.973v-1.243h-9.623v-5.156h-1.365c-0.16,2.168-0.633,4.812-3.104,5.156v1.243h2.234v8.515
			c0,1.482,0.736,3.016,3.051,3.016c2.812,0,3.574-1.665,3.574-4.232v-1.137H41.3v1.534c0,1.532-0.735,2.592-1.839,2.592
			c-0.896,0-1.316-0.477-1.316-1.562v-8.726h3.969c0.87,0,1.264,0.289,1.5,0.872l4.154,10.394h1.472l3.024-7.696l3.076,7.696h1.524
			l3.971-10.022c0.263-0.716,0.763-1.243,1.63-1.243h0.395V160.497z M221.359,160.899v-0.187h-0.957l-1.609,3.104l-1.537-3.104
			h-1.127v0.187c0.274,0,0.561,0.196,0.679,0.492v2.484c0,0.423-0.089,0.581-0.521,0.632v0.186h1.273v-0.186
			c-0.423-0.051-0.51-0.209-0.51-0.632v-2.219h0.02l1.488,3.065h0.088l1.521-3.095h0.019v2.326c0,0.503,0.021,0.493-0.489,0.554
			v0.186h1.596v-0.186c-0.511-0.061-0.492-0.051-0.492-0.554v-2.493C220.801,161.117,220.939,160.919,221.359,160.899z
			 M130.166,160.1c-4.232,0-6.782,2.777-6.782,6.586c0,3.808,2.55,6.585,6.782,6.585s6.785-2.777,6.785-6.585
			C136.951,162.877,134.398,160.1,130.166,160.1z M130.166,172.027c-3.258,0-4.284-2.485-4.284-5.342
			c0-2.855,1.026-5.342,4.284-5.342c3.262,0,4.287,2.486,4.287,5.342C134.453,169.542,133.428,172.027,130.166,172.027z
			 M122.255,157.799c0,0.688,0.289,1.298,1.365,1.298c0.896,0,1.578-0.531,1.578-1.509c0-2.247-2.366-2.777-3.865-2.777
			c-1.999,0-4.075,1.057-4.075,3.886v1.801h-9.019v1.243h0.737c1.053,0,1.604,0.237,1.604,0.634c0,0.37-0.104,0.636-0.186,0.846
			l-3.074,7.142l-2.604-6.188c-0.396-0.953-0.684-1.586-0.684-1.905c0-0.421,0.341-0.527,1.604-0.527h0.578v-1.243H95.697v-5.156
			h-1.365c-0.158,2.168-0.633,4.812-3.104,5.156v1.243h2.236v8.515c0,1.482,0.734,3.016,3.049,3.016
			c2.812,0,3.577-1.665,3.577-4.232v-1.137h-1.237v1.534c0,1.532-0.736,2.592-1.84,2.592c-0.895,0-1.316-0.477-1.316-1.562v-8.726
			h4.261c0.972,0,1.446,0.423,1.892,1.401l4.445,9.786l-1.264,2.563c-0.498,1.006-1.314,1.746-2.602,1.746
			c-0.789,0-1.445-0.476-1.552-0.95c0.763,0,1.579-0.239,1.579-1.219c0-0.898-0.685-1.375-1.422-1.375
			c-0.709,0-1.629,0.477-1.629,2.09c0,1.666,1.472,2.697,2.996,2.697c1.867,0,3.393-1.138,4.076-2.697l5.496-12.378
			c0.42-0.952,1.025-1.665,1.787-1.665h3.496v8.674c0,0.819-0.184,1.216-1.052,1.216h-1.761v1.244h7.862v-1.244h-1.317
			c-0.838,0-1.496-0.396-1.496-1.216v-8.674h2.917v-1.243h-2.917v-2.116c0-1.376,0.865-2.328,1.92-2.328
			c0.604,0,1.497,0.159,1.891,0.715C122.753,156.821,122.255,157.164,122.255,157.799z M89.257,170.414v-5.739
			c0-2.75-1.472-4.575-4.234-4.575c-2.022,0-3.601,0.979-4.651,2.645h-0.053v-2.247H75.35v1.243h1.707
			c0.869,0,1.052,0.396,1.052,1.216v7.458c0,0.819-0.183,1.216-1.052,1.216H75.35v1.244H83v-1.244h-1.604
			c-0.869,0-1.051-0.396-1.051-1.216v-4.708c0-2.115,1.471-4.125,3.969-4.125c2.024,0,2.708,1.083,2.708,2.909v5.924
			c0,0.819-0.185,1.216-1.052,1.216h-1.445v1.244h7.359v-1.244H90.31C89.441,171.63,89.257,171.233,89.257,170.414z
			 M212.369,161.579h0.184c0.09-0.364,0.257-0.68,0.668-0.68h0.501v3.055c0,0.503,0.009,0.493-0.493,0.554v0.186h1.6v-0.186
			c-0.51-0.061-0.49-0.051-0.49-0.554v-3.055h0.5c0.401,0,0.578,0.315,0.668,0.68h0.182v-0.866h-3.318V161.579z M161.588,160.1
			c-1.525,0-3.075,1.244-3.734,3.067h-0.052v-2.67h-4.995v1.243h1.812c0.867,0,1.051,0.396,1.051,1.216v7.458
			c0,0.819-0.184,1.216-1.051,1.216h-3.128c-0.868,0-1.053-0.396-1.053-1.216v-9.917h-4.89v1.243h1.604
			c0.867,0,1.053,0.396,1.053,1.216v4.708c0,2.115-1.473,4.126-3.971,4.126c-2.023,0-2.708-1.085-2.708-2.911v-8.382h-4.864v1.243
			h1.577c0.867,0,1.052,0.396,1.052,1.216v6.163c0,2.908,1.475,4.151,4.232,4.151c2.025,0,3.604-0.979,4.655-2.645h0.052v2.248
			h12.412v-1.244h-1.421c-0.841,0-1.313-0.396-1.313-1.216v-3.57c0-2.619,1.285-5.5,3.758-5.5c0.577,0,1.393,0.131,1.525,0.739
			c-0.948,0-1.578,0.424-1.578,1.376c0,0.766,0.764,1.216,1.473,1.216c1.051,0,1.472-0.767,1.472-1.771
			C164.558,161.079,163.375,160.1,161.588,160.1z M68.959,160.1c-3.891,0-6.153,2.249-6.153,6.586s2.263,6.585,6.153,6.585
			c3.102,0,4.918-1.561,5.496-4.418H72.93c-0.551,2.063-1.841,3.175-3.943,3.175c-3.102,0-3.681-2.485-3.681-5.184h9.49
			C74.561,163.088,73.192,160.1,68.959,160.1z M65.306,165.601c0-2.302,1.129-4.257,3.575-4.257c2.394,0,3.418,1.955,3.418,4.257
			H65.306z"/>
	</g>
</g>
</svg>
