<?xml version="1.0" encoding="utf-8"?>
<!-- Generator: Adobe Illustrator 16.0.0, SVG Export Plug-In . SVG Version: 6.00 Build 0)  -->
<!DOCTYPE svg PUBLIC "-//W3C//DTD SVG 1.1//EN" "http://www.w3.org/Graphics/SVG/1.1/DTD/svg11.dtd">
<svg version="1.1" id="Ebene_1" xmlns="http://www.w3.org/2000/svg" xmlns:xlink="http://www.w3.org/1999/xlink" x="0px" y="0px"
	 width="207.818px" height="29.364px" viewBox="0 0 207.818 29.364" enable-background="new 0 0 207.818 29.364"
	 xml:space="preserve">
<g>
	<path fill="#FFFFFF" d="M10.791,1.436c0.991,0.957,1.541,2.044,1.65,3.262h-1.895C10.336,3.773,9.916,3.041,9.286,2.5
		S7.772,1.689,6.634,1.689c-1.387,0-2.508,0.497-3.361,1.49c-0.854,0.994-1.28,2.517-1.28,4.569c0,1.681,0.385,3.045,1.156,4.091
		c0.771,1.045,1.92,1.568,3.448,1.568c1.407,0,2.479-0.55,3.214-1.65c0.39-0.58,0.681-1.341,0.873-2.285h1.895
		c-0.167,1.51-0.721,2.777-1.66,3.799c-1.126,1.23-2.646,1.846-4.557,1.846c-1.647,0-3.031-0.505-4.151-1.515
		C0.737,12.267,0,10.205,0,7.417C0,5.3,0.553,3.563,1.66,2.208C2.857,0.736,4.507,0,6.612,0C8.407,0,9.8,0.479,10.791,1.436z"/>
	<path fill="#FFFFFF" d="M17.088,0.391h1.943v12.637h7.197v1.709h-9.141V0.391z"/>
	<path fill="#FFFFFF" d="M34.397,0.391h2.194l5.207,14.346h-2.129l-1.498-4.297h-5.628l-1.556,4.297h-1.992L34.397,0.391z
		 M37.62,8.857L35.411,2.52l-2.295,6.338H37.62z"/>
	<path fill="#FFFFFF" d="M47.651,0.391v8.867c0,1.042,0.196,1.908,0.59,2.598c0.584,1.042,1.568,1.562,2.953,1.562
		c1.66,0,2.789-0.563,3.387-1.689c0.321-0.612,0.482-1.436,0.482-2.471V0.391h1.963v8.057c0,1.764-0.238,3.122-0.716,4.072
		c-0.876,1.732-2.528,2.598-4.958,2.598c-2.431,0-4.08-0.866-4.949-2.598c-0.477-0.951-0.715-2.308-0.715-4.072V0.391H47.651z"/>
	<path fill="#FFFFFF" d="M62.083,0.391h5.733c1.946,0,3.456,0.7,4.529,2.1c0.958,1.263,1.437,2.881,1.437,4.854
		c0,1.523-0.283,2.9-0.849,4.131c-0.995,2.174-2.708,3.262-5.136,3.262h-5.715V0.391z M67.434,13.076
		c0.644,0,1.172-0.068,1.586-0.205c0.738-0.254,1.343-0.742,1.814-1.465c0.375-0.58,0.646-1.322,0.812-2.227
		c0.095-0.541,0.144-1.042,0.144-1.504c0-1.777-0.346-3.158-1.037-4.141c-0.69-0.983-1.803-1.475-3.337-1.475h-3.37v11.016H67.434z"
		/>
	<path fill="#FFFFFF" d="M78.877,0.391h1.963v14.346h-1.963V0.391z"/>
	<path fill="#FFFFFF" d="M97.811,2.441c0.95,1.27,1.426,2.894,1.426,4.873c0,2.142-0.544,3.922-1.631,5.342
		c-1.276,1.667-3.096,2.5-5.459,2.5c-2.207,0-3.942-0.729-5.205-2.188c-1.127-1.406-1.689-3.184-1.689-5.332
		c0-1.94,0.481-3.6,1.445-4.98C87.934,0.885,89.764,0,92.186,0C94.718,0,96.593,0.814,97.811,2.441z M96.096,11.585
		c0.766-1.228,1.148-2.641,1.148-4.237c0-1.688-0.441-3.046-1.324-4.076c-0.882-1.03-2.088-1.544-3.617-1.544
		c-1.484,0-2.695,0.51-3.633,1.53c-0.938,1.02-1.406,2.523-1.406,4.51c0,1.59,0.401,2.931,1.205,4.022
		c0.805,1.091,2.108,1.637,3.912,1.637C94.093,13.428,95.332,12.813,96.096,11.585z"/>
	<path fill="#FFFFFF" d="M111.196,0.391h5.734c1.945,0,3.455,0.7,4.529,2.1c0.957,1.263,1.436,2.881,1.436,4.854
		c0,1.523-0.283,2.9-0.848,4.131c-0.996,2.174-2.709,3.262-5.137,3.262h-5.715V0.391z M116.547,13.076
		c0.645,0,1.172-0.068,1.586-0.205c0.738-0.254,1.344-0.742,1.814-1.465c0.375-0.58,0.646-1.322,0.811-2.227
		c0.096-0.541,0.145-1.042,0.145-1.504c0-1.777-0.346-3.158-1.037-4.141c-0.689-0.983-1.803-1.475-3.336-1.475h-3.371v11.016
		H116.547z"/>
	<path fill="#FFFFFF" d="M127.991,0.391h1.963v14.346h-1.963V0.391z"/>
	<path fill="#FFFFFF" d="M142.665,0.391h1.943v12.637h7.197v1.709h-9.141V0.391z"/>
	<path fill="#FFFFFF" d="M157.887,0.391v8.867c0,1.042,0.197,1.908,0.591,2.598c0.584,1.042,1.568,1.562,2.953,1.562
		c1.66,0,2.789-0.563,3.386-1.689c0.321-0.612,0.482-1.436,0.482-2.471V0.391h1.963v8.057c0,1.764-0.238,3.122-0.715,4.072
		c-0.876,1.732-2.529,2.598-4.959,2.598c-2.431,0-4.08-0.866-4.949-2.598c-0.477-0.951-0.715-2.308-0.715-4.072V0.391H157.887z"/>
	<path fill="#FFFFFF" d="M182.377,1.436c0.991,0.957,1.541,2.044,1.65,3.262h-1.895c-0.211-0.924-0.632-1.657-1.261-2.197
		c-0.63-0.541-1.515-0.811-2.652-0.811c-1.388,0-2.508,0.497-3.361,1.49c-0.854,0.994-1.28,2.517-1.28,4.569
		c0,1.681,0.386,3.045,1.156,4.091c0.771,1.045,1.92,1.568,3.448,1.568c1.407,0,2.479-0.55,3.214-1.65
		c0.39-0.58,0.681-1.341,0.873-2.285h1.895c-0.167,1.51-0.721,2.777-1.66,3.799c-1.126,1.23-2.646,1.846-4.557,1.846
		c-1.647,0-3.031-0.505-4.15-1.515c-1.474-1.335-2.211-3.397-2.211-6.186c0-2.117,0.554-3.854,1.66-5.208
		C174.443,0.736,176.094,0,178.198,0C179.994,0,181.386,0.479,182.377,1.436z"/>
	<path fill="#FFFFFF" d="M189.114,0.391h1.963v14.346h-1.963V0.391z"/>
	<path fill="#FFFFFF" d="M200.417,0.391h2.193l5.207,14.346h-2.129l-1.498-4.297h-5.628l-1.556,4.297h-1.992L200.417,0.391z
		 M203.64,8.857l-2.209-6.338l-2.295,6.338H203.64z"/>
	<path fill="#FFFFFF" d="M1.464,29.137v-8.64H4.62c0.56,0,1.022,0.063,1.386,0.191c0.364,0.128,0.652,0.305,0.864,0.528
		s0.36,0.482,0.444,0.773c0.084,0.293,0.126,0.599,0.126,0.919c0,0.479-0.098,0.876-0.294,1.188
		c-0.196,0.312-0.45,0.558-0.762,0.738c-0.312,0.18-0.666,0.306-1.062,0.378S4.528,25.32,4.128,25.32H2.28v3.816H1.464z
		 M4.152,24.625c0.384,0,0.728-0.024,1.032-0.072c0.304-0.048,0.562-0.138,0.774-0.27c0.212-0.133,0.376-0.312,0.492-0.54
		c0.116-0.229,0.174-0.526,0.174-0.895c0-0.544-0.178-0.956-0.534-1.236c-0.356-0.279-0.922-0.42-1.698-0.42H2.28v3.433H4.152z"/>
	<path fill="#FFFFFF" d="M10.74,29.137v-8.64h0.816v3.708h5.112v-3.708h0.816v8.64h-0.816V24.9h-5.112v4.236H10.74z"/>
	<path fill="#FFFFFF" d="M21,24.829c0-0.632,0.085-1.225,0.258-1.776c0.172-0.552,0.426-1.034,0.762-1.446
		c0.336-0.412,0.752-0.737,1.248-0.978s1.068-0.36,1.716-0.36c0.672,0,1.262,0.118,1.77,0.354c0.508,0.235,0.932,0.56,1.272,0.972
		c0.34,0.412,0.596,0.896,0.768,1.452c0.172,0.556,0.258,1.15,0.258,1.782c0,0.624-0.086,1.21-0.258,1.758
		c-0.172,0.548-0.426,1.028-0.762,1.439c-0.336,0.412-0.756,0.738-1.26,0.979c-0.504,0.24-1.088,0.359-1.752,0.359
		s-1.248-0.119-1.752-0.359c-0.504-0.24-0.924-0.566-1.26-0.979c-0.336-0.411-0.588-0.892-0.756-1.439S21,25.453,21,24.829z
		 M25.032,28.669c0.56,0,1.042-0.106,1.446-0.318c0.404-0.212,0.736-0.494,0.996-0.846c0.26-0.353,0.452-0.76,0.576-1.225
		c0.124-0.464,0.186-0.947,0.186-1.451c0-0.601-0.074-1.139-0.222-1.614s-0.362-0.882-0.642-1.218
		c-0.28-0.336-0.62-0.593-1.02-0.769s-0.848-0.264-1.344-0.264c-0.552,0-1.03,0.107-1.434,0.324
		c-0.404,0.216-0.736,0.502-0.996,0.857c-0.26,0.356-0.452,0.767-0.576,1.23c-0.125,0.464-0.186,0.948-0.186,1.452
		c0,0.512,0.062,1,0.186,1.464c0.124,0.464,0.316,0.872,0.576,1.224c0.26,0.353,0.592,0.632,0.996,0.84S24.464,28.669,25.032,28.669
		z"/>
	<path fill="#FFFFFF" d="M31.812,20.497H38.1v0.695h-2.736v7.944h-0.816v-7.944h-2.736V20.497z"/>
	<path fill="#FFFFFF" d="M40.848,24.829c0-0.632,0.085-1.225,0.258-1.776c0.172-0.552,0.426-1.034,0.762-1.446
		c0.336-0.412,0.752-0.737,1.248-0.978s1.068-0.36,1.716-0.36c0.672,0,1.262,0.118,1.771,0.354c0.508,0.235,0.932,0.56,1.271,0.972
		s0.596,0.896,0.768,1.452s0.258,1.15,0.258,1.782c0,0.624-0.086,1.21-0.258,1.758s-0.426,1.028-0.762,1.439
		c-0.336,0.412-0.756,0.738-1.26,0.979s-1.088,0.359-1.752,0.359s-1.248-0.119-1.752-0.359c-0.504-0.24-0.924-0.566-1.26-0.979
		c-0.336-0.411-0.588-0.892-0.756-1.439S40.848,25.453,40.848,24.829z M44.879,28.669c0.56,0,1.042-0.106,1.445-0.318
		c0.404-0.212,0.736-0.494,0.996-0.846c0.261-0.353,0.453-0.76,0.576-1.225c0.125-0.464,0.187-0.947,0.187-1.451
		c0-0.601-0.074-1.139-0.222-1.614c-0.148-0.476-0.362-0.882-0.643-1.218c-0.279-0.336-0.62-0.593-1.02-0.769
		c-0.4-0.176-0.848-0.264-1.344-0.264c-0.552,0-1.03,0.107-1.434,0.324c-0.404,0.216-0.736,0.502-0.996,0.857
		c-0.26,0.356-0.452,0.767-0.576,1.23c-0.125,0.464-0.186,0.948-0.186,1.452c0,0.512,0.062,1,0.186,1.464
		c0.124,0.464,0.316,0.872,0.576,1.224c0.26,0.353,0.592,0.632,0.996,0.84S44.312,28.669,44.879,28.669z"/>
	<path fill="#FFFFFF" d="M56.112,25.369v-0.696h3.695v4.464h-0.695v-1.476c-0.152,0.256-0.326,0.489-0.521,0.701
		c-0.197,0.213-0.423,0.393-0.679,0.54c-0.256,0.148-0.552,0.263-0.888,0.343c-0.336,0.079-0.717,0.119-1.141,0.119
		c-0.543,0-1.048-0.096-1.512-0.287c-0.464-0.192-0.863-0.479-1.199-0.858s-0.599-0.858-0.787-1.434
		c-0.188-0.576-0.281-1.248-0.281-2.017c0-0.632,0.08-1.222,0.24-1.77s0.405-1.024,0.737-1.429c0.332-0.403,0.748-0.722,1.248-0.953
		c0.5-0.232,1.091-0.349,1.771-0.349c0.455,0,0.882,0.057,1.277,0.168c0.396,0.112,0.752,0.282,1.068,0.51
		c0.316,0.229,0.582,0.513,0.798,0.853s0.372,0.742,0.468,1.206h-0.84c-0.072-0.32-0.193-0.608-0.365-0.864
		c-0.173-0.256-0.379-0.47-0.619-0.642c-0.239-0.172-0.508-0.305-0.803-0.396c-0.297-0.092-0.605-0.138-0.925-0.138
		c-0.567,0-1.056,0.1-1.464,0.3s-0.744,0.482-1.008,0.846c-0.264,0.364-0.459,0.801-0.582,1.309
		c-0.125,0.508-0.186,1.065-0.186,1.674c0,0.479,0.069,0.936,0.209,1.368c0.141,0.432,0.344,0.812,0.612,1.14
		s0.597,0.588,0.983,0.78c0.389,0.191,0.83,0.288,1.326,0.288c0.232,0,0.473-0.026,0.721-0.078s0.488-0.138,0.72-0.258
		s0.448-0.276,0.647-0.469c0.201-0.191,0.373-0.428,0.517-0.708c0.136-0.271,0.229-0.556,0.282-0.852
		c0.052-0.296,0.082-0.607,0.09-0.936H56.112z"/>
	<path fill="#FFFFFF" d="M64.5,25.213v3.924l-0.815-0.012v-8.628h3.384c0.952,0,1.68,0.178,2.184,0.533
		c0.505,0.356,0.757,0.935,0.757,1.734c0,0.544-0.111,0.977-0.33,1.296c-0.221,0.32-0.578,0.593-1.074,0.816
		c0.256,0.088,0.455,0.216,0.6,0.384s0.252,0.36,0.324,0.576s0.117,0.443,0.138,0.684s0.034,0.473,0.042,0.696
		c0.008,0.328,0.021,0.6,0.042,0.816c0.021,0.216,0.044,0.392,0.072,0.527c0.028,0.137,0.062,0.242,0.103,0.318
		c0.039,0.076,0.088,0.134,0.144,0.174v0.072l-0.9,0.012c-0.088-0.144-0.149-0.344-0.187-0.6c-0.035-0.256-0.063-0.524-0.084-0.805
		c-0.02-0.279-0.035-0.552-0.047-0.815c-0.013-0.265-0.035-0.48-0.066-0.648c-0.048-0.231-0.126-0.418-0.234-0.558
		c-0.107-0.14-0.238-0.246-0.39-0.318s-0.322-0.12-0.511-0.144c-0.188-0.024-0.381-0.036-0.581-0.036H64.5z M67.043,24.517
		c0.305,0,0.586-0.032,0.846-0.096c0.26-0.064,0.486-0.166,0.679-0.307c0.192-0.14,0.344-0.317,0.456-0.533
		c0.111-0.217,0.168-0.477,0.168-0.78c0-0.32-0.059-0.584-0.174-0.792c-0.117-0.208-0.272-0.372-0.469-0.492
		c-0.195-0.12-0.42-0.204-0.672-0.252s-0.514-0.072-0.785-0.072H64.5v3.324H67.043z"/>
	<path fill="#FFFFFF" d="M72.828,29.137l3.396-8.64h0.924l3.312,8.64h-0.84l-0.996-2.712h-3.936l-1.021,2.712H72.828z
		 M74.963,25.729h3.385l-1.693-4.536L74.963,25.729z"/>
	<path fill="#FFFFFF" d="M83.507,29.137v-8.64h3.155c0.561,0,1.022,0.063,1.387,0.191c0.363,0.128,0.652,0.305,0.863,0.528
		c0.213,0.224,0.361,0.482,0.445,0.773c0.084,0.293,0.125,0.599,0.125,0.919c0,0.479-0.098,0.876-0.293,1.188
		c-0.197,0.312-0.451,0.558-0.763,0.738c-0.312,0.18-0.666,0.306-1.062,0.378c-0.396,0.072-0.795,0.107-1.194,0.107h-1.849v3.816
		H83.507z M86.196,24.625c0.383,0,0.728-0.024,1.031-0.072c0.305-0.048,0.562-0.138,0.774-0.27c0.212-0.133,0.376-0.312,0.491-0.54
		c0.117-0.229,0.175-0.526,0.175-0.895c0-0.544-0.179-0.956-0.534-1.236c-0.355-0.279-0.922-0.42-1.698-0.42h-2.112v3.433H86.196z"
		/>
	<path fill="#FFFFFF" d="M92.784,29.137v-8.64h0.815v3.708h5.112v-3.708h0.816v8.64h-0.816V24.9h-5.112v4.236H92.784z"/>
	<path fill="#FFFFFF" d="M106.032,24.661l2.604-4.164h0.947l-3.131,4.872v3.768h-0.816v-3.708l-3.084-4.932h0.936L106.032,24.661z"
		/>
	<path fill="#FFFFFF" d="M122.771,26.904c0.151-0.256,0.249-0.525,0.294-0.81c0.044-0.284,0.065-0.574,0.065-0.87h0.72
		c-0.016,0.393-0.065,0.782-0.15,1.17c-0.084,0.389-0.234,0.75-0.45,1.086l1.405,1.656h-0.973l-0.842-1.02
		c-0.377,0.447-0.781,0.768-1.214,0.96c-0.433,0.191-0.938,0.287-1.515,0.287c-0.377,0-0.729-0.062-1.059-0.186
		c-0.328-0.124-0.615-0.298-0.859-0.522c-0.244-0.224-0.437-0.493-0.577-0.81c-0.14-0.315-0.21-0.666-0.21-1.05
		c0-0.32,0.056-0.616,0.168-0.888c0.111-0.272,0.262-0.521,0.45-0.744c0.188-0.225,0.405-0.422,0.653-0.595
		c0.248-0.172,0.512-0.321,0.792-0.449c-0.231-0.272-0.443-0.566-0.636-0.883c-0.192-0.315-0.288-0.666-0.288-1.05
		c0-0.271,0.052-0.514,0.156-0.726c0.104-0.212,0.244-0.391,0.42-0.534s0.382-0.252,0.618-0.324c0.235-0.071,0.485-0.107,0.75-0.107
		c0.264,0,0.508,0.044,0.731,0.132c0.225,0.088,0.416,0.208,0.576,0.359c0.16,0.152,0.284,0.33,0.372,0.534s0.132,0.418,0.132,0.643
		c0,0.288-0.046,0.538-0.138,0.75s-0.216,0.399-0.372,0.563s-0.338,0.314-0.546,0.45s-0.424,0.272-0.648,0.408L122.771,26.904z
		 M119.903,24.637c-0.24,0.112-0.462,0.246-0.666,0.402c-0.204,0.155-0.38,0.33-0.528,0.521c-0.148,0.192-0.266,0.398-0.354,0.618
		c-0.089,0.22-0.133,0.446-0.133,0.678c0,0.288,0.05,0.546,0.15,0.774c0.1,0.228,0.236,0.422,0.408,0.582s0.376,0.284,0.611,0.372
		c0.236,0.088,0.494,0.132,0.774,0.132c0.464,0,0.874-0.106,1.23-0.318c0.355-0.212,0.678-0.489,0.966-0.834L119.903,24.637z
		 M121.439,22.656c0.071-0.159,0.102-0.329,0.09-0.51c-0.013-0.18-0.064-0.344-0.156-0.492c-0.092-0.147-0.218-0.27-0.378-0.365
		c-0.16-0.097-0.353-0.145-0.576-0.145c-0.152,0-0.296,0.024-0.432,0.072c-0.137,0.048-0.258,0.116-0.366,0.204
		s-0.194,0.196-0.258,0.324c-0.064,0.128-0.097,0.271-0.097,0.432c0,0.128,0.032,0.269,0.097,0.42
		c0.063,0.152,0.142,0.3,0.233,0.444c0.092,0.144,0.19,0.281,0.294,0.414c0.104,0.132,0.196,0.246,0.276,0.342
		c0.24-0.145,0.481-0.302,0.726-0.475C121.136,23.15,121.319,22.929,121.439,22.656z"/>
	<path fill="#FFFFFF" d="M133.067,29.137v-8.64h2.952c0.24,0,0.476,0.006,0.708,0.018s0.46,0.04,0.685,0.084
		c0.224,0.044,0.441,0.11,0.653,0.198s0.418,0.204,0.618,0.348c0.288,0.208,0.524,0.462,0.708,0.762
		c0.184,0.301,0.33,0.616,0.438,0.948c0.107,0.332,0.184,0.668,0.228,1.008c0.044,0.341,0.066,0.654,0.066,0.942
		s-0.019,0.58-0.055,0.876c-0.035,0.296-0.094,0.586-0.174,0.87s-0.186,0.556-0.317,0.816c-0.133,0.26-0.299,0.497-0.498,0.714
		c-0.2,0.224-0.419,0.403-0.654,0.54c-0.236,0.136-0.484,0.241-0.744,0.317s-0.53,0.128-0.81,0.156
		c-0.28,0.028-0.564,0.042-0.853,0.042H133.067z M133.883,28.44h1.956c0.368,0,0.714-0.021,1.038-0.065s0.653-0.154,0.99-0.33
		c0.287-0.145,0.523-0.34,0.708-0.588c0.184-0.248,0.329-0.519,0.438-0.811s0.184-0.598,0.229-0.918
		c0.043-0.319,0.065-0.628,0.065-0.924c0-0.312-0.02-0.63-0.06-0.954s-0.116-0.632-0.229-0.924s-0.264-0.56-0.456-0.804
		c-0.191-0.244-0.439-0.446-0.744-0.606c-0.256-0.136-0.56-0.224-0.912-0.264c-0.352-0.04-0.708-0.061-1.067-0.061h-1.956V28.44z"/>
	<path fill="#FFFFFF" d="M143.939,29.137v-8.64h0.816v8.64H143.939z"/>
	<path fill="#FFFFFF" d="M149.711,25.213v3.924l-0.816-0.012v-8.628h3.384c0.952,0,1.681,0.178,2.185,0.533
		c0.504,0.356,0.756,0.935,0.756,1.734c0,0.544-0.11,0.977-0.33,1.296c-0.221,0.32-0.578,0.593-1.074,0.816
		c0.256,0.088,0.456,0.216,0.601,0.384c0.144,0.168,0.252,0.36,0.323,0.576c0.072,0.216,0.118,0.443,0.139,0.684
		c0.02,0.24,0.033,0.473,0.042,0.696c0.008,0.328,0.021,0.6,0.042,0.816c0.02,0.216,0.044,0.392,0.071,0.527
		c0.028,0.137,0.062,0.242,0.103,0.318s0.088,0.134,0.144,0.174v0.072l-0.899,0.012c-0.089-0.144-0.15-0.344-0.187-0.6
		s-0.063-0.524-0.084-0.805c-0.02-0.279-0.036-0.552-0.048-0.815c-0.012-0.265-0.034-0.48-0.066-0.648
		c-0.048-0.231-0.126-0.418-0.233-0.558c-0.108-0.14-0.238-0.246-0.391-0.318c-0.151-0.072-0.321-0.12-0.51-0.144
		c-0.188-0.024-0.382-0.036-0.582-0.036H149.711z M152.255,24.517c0.304,0,0.586-0.032,0.846-0.096
		c0.26-0.064,0.486-0.166,0.678-0.307c0.192-0.14,0.344-0.317,0.456-0.533c0.112-0.217,0.168-0.477,0.168-0.78
		c0-0.32-0.058-0.584-0.174-0.792s-0.272-0.372-0.468-0.492c-0.196-0.12-0.42-0.204-0.672-0.252s-0.515-0.072-0.786-0.072h-2.592
		v3.324H152.255z"/>
	<path fill="#FFFFFF" d="M158.831,29.137v-8.64h5.748v0.695h-4.932v3.12h4.452v0.696h-4.452v3.432h5.052v0.696H158.831z"/>
	<path fill="#FFFFFF" d="M174.214,23.005c-0.168-0.736-0.479-1.26-0.936-1.572c-0.456-0.312-1.052-0.468-1.788-0.468
		c-0.52,0-0.968,0.104-1.344,0.312s-0.687,0.488-0.93,0.841c-0.244,0.352-0.425,0.758-0.54,1.218
		c-0.116,0.46-0.175,0.946-0.175,1.458c0,0.479,0.05,0.952,0.15,1.416c0.1,0.464,0.266,0.878,0.498,1.242
		c0.231,0.363,0.544,0.657,0.936,0.882c0.393,0.224,0.885,0.336,1.477,0.336c0.368,0,0.704-0.061,1.008-0.181
		c0.304-0.119,0.57-0.285,0.798-0.498c0.229-0.211,0.42-0.462,0.576-0.75c0.156-0.287,0.274-0.604,0.354-0.947h0.852
		c-0.096,0.416-0.236,0.81-0.42,1.182c-0.185,0.372-0.426,0.698-0.727,0.979c-0.3,0.279-0.664,0.502-1.092,0.666
		c-0.428,0.163-0.93,0.245-1.506,0.245c-0.664,0-1.232-0.122-1.704-0.365c-0.472-0.244-0.857-0.574-1.158-0.99
		c-0.3-0.416-0.518-0.898-0.653-1.446c-0.137-0.548-0.204-1.13-0.204-1.746c0-0.823,0.102-1.523,0.306-2.1s0.486-1.046,0.846-1.41
		c0.36-0.364,0.784-0.628,1.272-0.792s1.02-0.246,1.596-0.246c0.44,0,0.851,0.059,1.23,0.174c0.38,0.116,0.716,0.29,1.008,0.522
		s0.532,0.518,0.72,0.857c0.188,0.341,0.318,0.734,0.391,1.183H174.214z"/>
	<path fill="#FFFFFF" d="M177.887,20.497h6.288v0.695h-2.736v7.944h-0.816v-7.944h-2.735V20.497z"/>
	<path fill="#FFFFFF" d="M186.922,24.829c0-0.632,0.086-1.225,0.258-1.776c0.173-0.552,0.427-1.034,0.763-1.446
		s0.752-0.737,1.248-0.978s1.067-0.36,1.716-0.36c0.672,0,1.262,0.118,1.77,0.354c0.508,0.235,0.933,0.56,1.272,0.972
		s0.596,0.896,0.768,1.452s0.259,1.15,0.259,1.782c0,0.624-0.087,1.21-0.259,1.758s-0.426,1.028-0.762,1.439
		c-0.336,0.412-0.756,0.738-1.26,0.979s-1.088,0.359-1.752,0.359s-1.248-0.119-1.752-0.359s-0.924-0.566-1.261-0.979
		c-0.336-0.411-0.588-0.892-0.756-1.439S186.922,25.453,186.922,24.829z M190.955,28.669c0.56,0,1.042-0.106,1.446-0.318
		c0.403-0.212,0.735-0.494,0.996-0.846c0.26-0.353,0.451-0.76,0.575-1.225c0.124-0.464,0.187-0.947,0.187-1.451
		c0-0.601-0.074-1.139-0.222-1.614c-0.148-0.476-0.362-0.882-0.643-1.218s-0.62-0.593-1.02-0.769
		c-0.4-0.176-0.849-0.264-1.345-0.264c-0.552,0-1.029,0.107-1.434,0.324c-0.404,0.216-0.736,0.502-0.996,0.857
		c-0.26,0.356-0.452,0.767-0.576,1.23s-0.186,0.948-0.186,1.452c0,0.512,0.062,1,0.186,1.464s0.316,0.872,0.576,1.224
		c0.26,0.353,0.592,0.632,0.996,0.84S190.386,28.669,190.955,28.669z"/>
	<path fill="#FFFFFF" d="M199.319,25.213v3.924l-0.816-0.012v-8.628h3.384c0.952,0,1.681,0.178,2.185,0.533
		c0.504,0.356,0.756,0.935,0.756,1.734c0,0.544-0.11,0.977-0.33,1.296c-0.221,0.32-0.578,0.593-1.074,0.816
		c0.256,0.088,0.456,0.216,0.601,0.384c0.144,0.168,0.252,0.36,0.323,0.576c0.072,0.216,0.118,0.443,0.139,0.684
		c0.02,0.24,0.033,0.473,0.042,0.696c0.008,0.328,0.021,0.6,0.042,0.816c0.02,0.216,0.044,0.392,0.071,0.527
		c0.028,0.137,0.062,0.242,0.103,0.318s0.088,0.134,0.144,0.174v0.072l-0.899,0.012c-0.089-0.144-0.15-0.344-0.187-0.6
		s-0.063-0.524-0.084-0.805c-0.02-0.279-0.036-0.552-0.048-0.815c-0.012-0.265-0.034-0.48-0.066-0.648
		c-0.048-0.231-0.126-0.418-0.233-0.558c-0.108-0.14-0.238-0.246-0.391-0.318c-0.151-0.072-0.321-0.12-0.51-0.144
		c-0.188-0.024-0.382-0.036-0.582-0.036H199.319z M201.863,24.517c0.304,0,0.586-0.032,0.846-0.096
		c0.26-0.064,0.486-0.166,0.678-0.307c0.192-0.14,0.344-0.317,0.456-0.533c0.112-0.217,0.168-0.477,0.168-0.78
		c0-0.32-0.058-0.584-0.174-0.792s-0.272-0.372-0.468-0.492c-0.196-0.12-0.42-0.204-0.672-0.252s-0.515-0.072-0.786-0.072h-2.592
		v3.324H201.863z"/>
</g>
</svg>
