<?xml version="1.0" encoding="utf-8"?>
<!-- Generator: Adobe Illustrator 16.0.0, SVG Export Plug-In . SVG Version: 6.00 Build 0)  -->
<!DOCTYPE svg PUBLIC "-//W3C//DTD SVG 1.1//EN" "http://www.w3.org/Graphics/SVG/1.1/DTD/svg11.dtd">
<svg version="1.1" id="pfeil.svg" xmlns="http://www.w3.org/2000/svg" xmlns:xlink="http://www.w3.org/1999/xlink" x="0px" y="0px"
	 width="27.21px" height="27.21px" viewBox="0 0 27.21 27.21" enable-background="new 0 0 27.21 27.21" xml:space="preserve">
<path id="einfacher_pfeilv" fill="#FFFFFF" d="M18.546,14.369H9.3l2.209,2.199c0.194,0.193,0.194,0.508,0,0.702
	c-0.193,0.193-0.508,0.193-0.702,0l-3.053-3.048c-0.19-0.193-0.19-0.504,0-0.697l3.053-3.042c0.191-0.194,0.503-0.197,0.697-0.006
	c0.002,0.002,0.004,0.004,0.005,0.006c0.19,0.193,0.19,0.504,0,0.696L9.3,13.378h9.246c0.273-0.004,0.498,0.215,0.502,0.489
	c0.004,0.273-0.215,0.498-0.488,0.502C18.555,14.369,18.55,14.369,18.546,14.369z"/>
</svg>
